<?xml version="1.0" encoding="UTF-8" standalone="no"?>
<!DOCTYPE svg PUBLIC "-//W3C//DTD SVG 1.1//EN" "http://www.w3.org/Graphics/SVG/1.1/DTD/svg11.dtd">
<!-- Gegenereerd door Microsoft Visio, SVG Export cuckoo-diagram4.svg Page-1 -->
<svg xmlns="http://www.w3.org/2000/svg" xmlns:xlink="http://www.w3.org/1999/xlink" xmlns:ev="http://www.w3.org/2001/xml-events"
		xmlns:v="http://schemas.microsoft.com/visio/2003/SVGExtensions/"
		viewBox="0 0 595.276 460" xml:space="preserve" color-interpolation-filters="sRGB" class="st19">
	<v:documentProperties v:langID="1043" v:metric="true" v:viewMarkup="false">
		<v:userDefs>
			<v:ud v:nameU="msvNoAutoConnect" v:val="VT0(1):26"/>
		</v:userDefs>
	</v:documentProperties>

	<style type="text/css">
	<![CDATA[
		.st1 {fill:#000000;stroke:none;stroke-linecap:round;stroke-linejoin:round;stroke-width:0.72}
		.st2 {fill:#ffffff;stroke:#000000;stroke-linecap:round;stroke-linejoin:round;stroke-width:0.75;visibility:hidden}
		.st3 {marker-start:url(#mrkr4-16);stroke:#000000;stroke-linecap:round;stroke-linejoin:round;stroke-width:0.75}
		.st4 {fill:#000000;fill-opacity:1;stroke:#000000;stroke-opacity:1;stroke-width:0.22935779816514}
		.st5 {marker-end:url(#mrkr4-28);stroke:#000000;stroke-linecap:round;stroke-linejoin:round;stroke-width:0.75}
		.st6 {fill:#f5f5f5;stroke:none;stroke-linecap:butt;stroke-width:7.2}
		.st7 {fill:#000000;font-family:Roboto;font-size:0.583328em}
		.st8 {fill:#282828;stroke:#ffc000;stroke-linecap:round;stroke-linejoin:round;stroke-width:1}
		.st9 {marker-end:url(#mrkr4-28);marker-start:url(#mrkr4-16);stroke:#000000;stroke-linecap:round;stroke-linejoin:round;stroke-width:0.75}
		.st10 {fill:none;stroke:none;stroke-linecap:round;stroke-linejoin:round;stroke-width:0.75}
		.st11 {font-size:1em}
		.st12 {fill:#ffffff;stroke:#000000;stroke-linecap:round;stroke-linejoin:round;stroke-width:0.75}
		.st13 {fill:#000000}
		.st14 {stroke:#000000;stroke-dasharray:5.25,3.75;stroke-linecap:round;stroke-linejoin:round;stroke-width:0.75}
		.st15 {fill:#f5f5f5;stroke:none;stroke-linecap:butt}
		.st16 {stroke:#000000;stroke-linecap:round;stroke-linejoin:round;stroke-width:0.75}
		.st17 {fill:#595959;stroke:none;stroke-linecap:butt;stroke-width:0.75}
		.st18 {fill:#ffffff;font-family:Roboto;font-size:0.666664em}
		.st19 {fill:none;fill-rule:evenodd;font-size:12px;overflow:visible;stroke-linecap:square;stroke-miterlimit:3}
	]]>
	</style>

	<defs id="Markers">
		<g id="lend4">
			<path d="M 2 1 L 0 0 L 2 -1 L 2 1 " style="stroke:none"/>
		</g>
		<marker id="mrkr4-16" class="st4" v:arrowType="4" v:arrowSize="2" v:setback="8.24" refX="8.24" orient="auto"
				markerUnits="strokeWidth" overflow="visible">
			<use xlink:href="#lend4" transform="scale(4.36) "/>
		</marker>
		<marker id="mrkr4-28" class="st4" v:arrowType="4" v:arrowSize="2" v:setback="8.72" refX="-8.72" orient="auto"
				markerUnits="strokeWidth" overflow="visible">
			<use xlink:href="#lend4" transform="scale(-4.36,-4.36) "/>
		</marker>
	</defs>
	<g v:mID="0" v:index="1" v:groupContext="foregroundPage">
		<title>Pagina-1</title>
		<v:pageProperties v:drawingScale="0.0393701" v:pageScale="0.0393701" v:drawingUnits="24" v:shadowOffsetX="8.50394"
				v:shadowOffsetY="-8.50394"/>
		<v:layer v:name="Stroomdiagram" v:index="0"/>
		<v:layer v:name="Verbindingslijn" v:index="1"/>
		<g id="group1-1" transform="translate(419.962,-694.493) rotate(10)" v:mID="1" v:groupContext="group" v:layerMember="0">
			<v:custProps>
				<v:cp v:nameU="Cost" v:lbl="Kosten" v:type="7" v:format="@" v:langID="1043"/>
				<v:cp v:nameU="Duration" v:lbl="Duur" v:type="2" v:langID="1043"/>
				<v:cp v:nameU="Resources" v:lbl="Resources" v:type="0" v:langID="1043"/>
			</v:custProps>
			<v:userDefs>
				<v:ud v:nameU="visVersion" v:val="VT0(15):26"/>
				<v:ud v:nameU="Scale" v:val="VT0(1):26"/>
				<v:ud v:nameU="AntiScale" v:val="VT0(1):26"/>
			</v:userDefs>
			<title>Werkproceslus 1</title>
			<g id="shape2-2" v:mID="2" v:groupContext="shape" v:layerMember="0" transform="translate(-2.55118,-56.4804)">
				<title>Blad.2</title>
				<path d="M0 839.34 A2.55118 2.55118 0 0 1 5.1 839.34 A2.55118 2.55118 0 1 1 0 839.34 Z" class="st1"/>
			</g>
			<g id="shape3-4" v:mID="3" v:groupContext="shape" v:layerMember="0" transform="translate(-34.0157,-49.43)">
				<title>Blad.3</title>
				<rect x="0" y="829.49" width="34.0157" height="12.4" class="st2"/>
			</g>
			<g id="shape4-6" v:mID="4" v:groupContext="shape" v:layerMember="0" transform="translate(114.21,-49.43)">
				<title>Blad.4</title>
				<rect x="0" y="829.49" width="34.0157" height="12.4" class="st2"/>
			</g>
			<g id="shape5-8" v:mID="5" v:groupContext="shape" v:layerMember="0">
				<title>Blad.5</title>
				<path d="M66.08 841.23 L66.44 841.19 A57.3872 55.9051 -180 0 0 114.21 789.09" class="st3"/>
				<path d="M113.5 777.29 L113.45 776.93 A57.3872 55.9051 -180 0 0 59.94 730.63" class="st3"/>
				<path d="M0.71 795.23 L0.76 795.59 A57.3872 55.9051 -180 0 0 54.27 841.89" class="st3"/>
				<path d="M48.13 731.29 L47.77 731.33 A57.3872 55.9051 -180 0 0 0 783.43" class="st3"/>
			</g>
		</g>
		<g id="shape7-23" v:mID="7" v:groupContext="shape" v:layerMember="1" transform="translate(448.11,-765.104)">
			<title>Dynamische verbindingslijn</title>
			<desc>Create task</desc>
			<v:textBlock v:margins="rect(4,4,4,4)" v:tabSpace="42.5197"/>
			<v:textRect cx="0" cy="870.319" width="41.63" height="16.4039"/>
			<path d="M0 841.89 L0 898.78 L-19.04 898.78" class="st5"/>
			<rect v:rectContext="textBkgnd" x="-16.0184" y="866.119" width="32.0367" height="8.40015" class="st6"/>
			<text x="-16.02" y="872.42" class="st7" v:langID="1043"><v:paragraph v:horizAlign="1"/><v:tabList/>Create task</text>		</g>
		<g id="group8-31" transform="translate(371.26,-681.286)" v:mID="8" v:groupContext="group">
			<v:custProps>
				<v:cp v:nameU="AssetNumber" v:lbl="Activumnummer" v:prompt="" v:type="0" v:format="" v:sortKey="Asset"
						v:invis="false" v:ask="false" v:langID="1043" v:cal="0"/>
				<v:cp v:nameU="SerialNumber" v:lbl="Serienummer" v:prompt="" v:type="0" v:format="" v:sortKey="Asset"
						v:invis="false" v:ask="false" v:langID="1043" v:cal="0"/>
				<v:cp v:nameU="Location" v:lbl="Locatie" v:prompt="" v:type="0" v:format="" v:sortKey="Asset" v:invis="false"
						v:ask="false" v:langID="1043" v:cal="0"/>
				<v:cp v:nameU="Building" v:lbl="Gebouw" v:prompt="" v:type="0" v:format="" v:sortKey="Asset" v:invis="false"
						v:ask="false" v:langID="1043" v:cal="0"/>
				<v:cp v:nameU="Room" v:lbl="Ruimte" v:prompt="" v:type="0" v:format="" v:sortKey="Asset" v:invis="false"
						v:ask="false" v:langID="1043" v:cal="0"/>
				<v:cp v:nameU="Manufacturer" v:lbl="Fabrikant" v:prompt="" v:type="0" v:format="" v:sortKey="Equipment"
						v:invis="false" v:ask="false" v:langID="1043" v:cal="0"/>
				<v:cp v:nameU="ProductNumber" v:lbl="Productnummer" v:prompt="" v:type="0" v:format="" v:sortKey="Equipment"
						v:invis="false" v:ask="false" v:langID="1043" v:cal="0"/>
				<v:cp v:nameU="PartNumber" v:lbl="Onderdeelnummer" v:prompt="" v:type="0" v:format="" v:sortKey="Equipment"
						v:invis="false" v:ask="false" v:langID="1043" v:cal="0"/>
				<v:cp v:nameU="ProductDescription" v:lbl="Productbeschrijving" v:prompt="" v:type="0" v:format=""
						v:sortKey="Equipment" v:invis="false" v:ask="false" v:langID="1043" v:cal="0"/>
				<v:cp v:nameU="NetworkName" v:lbl="Netwerknaam" v:prompt="" v:type="0" v:format="" v:sortKey="Network"
						v:invis="false" v:ask="false" v:langID="1043" v:cal="0"/>
				<v:cp v:nameU="IPAddress" v:lbl="IP-adres" v:prompt="" v:type="0" v:format="" v:sortKey="Network" v:invis="false"
						v:ask="false" v:langID="1043" v:cal="0"/>
				<v:cp v:nameU="SubnetMask" v:lbl="Subnetmasker" v:prompt="" v:type="0" v:format="" v:sortKey="Network"
						v:invis="false" v:ask="false" v:langID="1043" v:cal="0"/>
				<v:cp v:nameU="AdminInterface" v:lbl="Beheerinterface" v:prompt="" v:type="0" v:format="" v:sortKey="Network"
						v:invis="false" v:ask="false" v:langID="1043" v:cal="0"/>
				<v:cp v:nameU="NumberofPorts" v:lbl="Aantal poorten" v:prompt="" v:type="0" v:format="" v:sortKey="Network"
						v:invis="false" v:ask="false" v:langID="1043" v:cal="0"/>
				<v:cp v:nameU="CommunityString" v:lbl="Groepstekenreeks" v:prompt="" v:type="0" v:format="" v:sortKey="Network"
						v:invis="false" v:ask="false" v:langID="1043" v:cal="0"/>
				<v:cp v:nameU="NetworkDescription" v:lbl="Netwerkbeschrijving" v:prompt="" v:type="0" v:format=""
						v:sortKey="Network" v:invis="false" v:ask="false" v:langID="1043" v:cal="0"/>
				<v:cp v:nameU="MACAddress" v:lbl="MAC-adres" v:prompt="" v:type="0" v:format="" v:sortKey="Network" v:invis="false"
						v:ask="false" v:langID="1043" v:cal="0"/>
				<v:cp v:nameU="ShapeClass" v:lbl="ShapeClass" v:prompt="" v:type="0" v:format="" v:sortKey="" v:invis="true"
						v:ask="false" v:langID="1043" v:cal="0" v:val="VT4(Connectiviteit)"/>
				<v:cp v:nameU="ShapeType" v:lbl="ShapeType" v:prompt="" v:type="0" v:format="" v:sortKey="" v:invis="true"
						v:ask="false" v:langID="1043" v:cal="0" v:val="VT4(Conceptueel)"/>
				<v:cp v:nameU="SubShapeType" v:lbl="SubShapeType" v:prompt="" v:type="0" v:format="" v:sortKey="" v:invis="true"
						v:ask="false" v:langID="1043" v:cal="0" v:val="VT4(Database)"/>
			</v:custProps>
			<v:userDefs>
				<v:ud v:nameU="visVersion" v:prompt="" v:val="VT0(15):26"/>
				<v:ud v:nameU="ShapeClass" v:prompt="" v:val="VT0(5):26"/>
				<v:ud v:nameU="SOLSH" v:prompt="" v:val="VT15({BF0433D9-CD73-4EB5-8390-8653BE590246}):41"/>
				<v:ud v:nameU="visLegendShape" v:prompt="" v:val="VT0(2):26"/>
			</v:userDefs>
			<title>Database</title>
			<desc>Database</desc>
			<g id="shape9-32" v:mID="9" v:groupContext="shape" transform="translate(2.58409,0)">
				<title>Blad.9</title>
				<path d="M0 796.24 L0 833.77 A24.345 8.12463 -180 1 0 48.69 833.77 L48.69 796.16 A24.345 8.12463 0 0 1 0 796.24 ZM48.69
							 796.16 A24.345 8.12463 -180 1 0 0 796.16 A24.345 8.12463 -180 1 0 48.69 796.16 Z" class="st8"/>
			</g>
			<g id="shape8-34" v:mID="8" v:groupContext="groupContent">
				<v:textBlock v:margins="rect(2,2,2,2)" v:tabSpace="42.5197"/>
				<v:textRect cx="26.9291" cy="848.092" width="32.2" height="12.4039"/>
				<text x="13.62" y="850.19" class="st7" v:langID="1043"><v:paragraph v:horizAlign="1"/><v:tabList/>Database</text>			</g>
		</g>
		<g id="shape11-36" v:mID="11" v:groupContext="shape" v:layerMember="1" transform="translate(190.079,-620.828)">
			<title>Dynamische verbindingslijn.134</title>
			<desc>Retrieve VM for task</desc>
			<v:textBlock v:margins="rect(4,4,4,4)" v:tabSpace="42.5197"/>
			<v:textRect cx="-44.5827" cy="834.803" width="67.98" height="16.4039"/>
			<path d="M-6.18 834.8 L-6.54 834.8 L-82.63 834.8" class="st9"/>
			<rect v:rectContext="textBkgnd" x="-75.779" y="830.603" width="65.3926" height="8.40015" class="st6"/>
			<text x="-73.78" y="836.9" class="st7" v:langID="1043"><v:paragraph v:horizAlign="1"/><v:tabList/>Retrieve VM for task</text>		</g>
		<g id="shape15-45" v:mID="15" v:groupContext="shape" transform="translate(289.077,-741.525)">
			<title>Blad.15</title>
			<desc>Check if any VMs and pending tasks are available</desc>
			<v:textBlock v:margins="rect(4,4,4,4)" v:tabSpace="42.5197"/>
			<v:textRect cx="50.5898" cy="831.262" width="101.18" height="21.2547"/>
			<rect x="0" y="820.635" width="101.18" height="21.2547" class="st10"/>
			<text x="7.9" y="829.16" class="st7" v:langID="1043"><v:paragraph v:horizAlign="1"/><v:tabList/>Check if any VMs and pending <tspan
						x="24.59" dy="1.2em" class="st11">tasks are available</tspan></text>		</g>
		<g id="group17-49" transform="translate(318.407,-413.819)" v:mID="17" v:groupContext="group">
			<v:custProps>
				<v:cp v:nameU="AssetNumber" v:lbl="Activumnummer" v:prompt="" v:type="0" v:format="" v:sortKey="Asset"
						v:invis="false" v:ask="false" v:langID="1043" v:cal="0"/>
				<v:cp v:nameU="SerialNumber" v:lbl="Serienummer" v:prompt="" v:type="0" v:format="" v:sortKey="Asset"
						v:invis="false" v:ask="false" v:langID="1043" v:cal="0"/>
				<v:cp v:nameU="Location" v:lbl="Locatie" v:prompt="" v:type="0" v:format="" v:sortKey="Asset" v:invis="false"
						v:ask="false" v:langID="1043" v:cal="0"/>
				<v:cp v:nameU="Building" v:lbl="Gebouw" v:prompt="" v:type="0" v:format="" v:sortKey="Asset" v:invis="false"
						v:ask="false" v:langID="1043" v:cal="0"/>
				<v:cp v:nameU="Room" v:lbl="Ruimte" v:prompt="" v:type="0" v:format="" v:sortKey="Asset" v:invis="false"
						v:ask="false" v:langID="1043" v:cal="0"/>
				<v:cp v:nameU="Manufacturer" v:lbl="Fabrikant" v:prompt="" v:type="0" v:format="" v:sortKey="Equipment"
						v:invis="false" v:ask="false" v:langID="1043" v:cal="0"/>
				<v:cp v:nameU="ProductNumber" v:lbl="Productnummer" v:prompt="" v:type="0" v:format="" v:sortKey="Equipment"
						v:invis="false" v:ask="false" v:langID="1043" v:cal="0"/>
				<v:cp v:nameU="PartNumber" v:lbl="Onderdeelnummer" v:prompt="" v:type="0" v:format="" v:sortKey="Equipment"
						v:invis="false" v:ask="false" v:langID="1043" v:cal="0"/>
				<v:cp v:nameU="ProductDescription" v:lbl="Productbeschrijving" v:prompt="" v:type="0" v:format=""
						v:sortKey="Equipment" v:invis="false" v:ask="false" v:langID="1043" v:cal="0"/>
				<v:cp v:nameU="NetworkName" v:lbl="Netwerknaam" v:prompt="" v:type="0" v:format="" v:sortKey="Network"
						v:invis="false" v:ask="false" v:langID="1043" v:cal="0"/>
				<v:cp v:nameU="IPAddress" v:lbl="IP-adres" v:prompt="" v:type="0" v:format="" v:sortKey="Network" v:invis="false"
						v:ask="false" v:langID="1043" v:cal="0"/>
				<v:cp v:nameU="SubnetMask" v:lbl="Subnetmasker" v:prompt="" v:type="0" v:format="" v:sortKey="Network"
						v:invis="false" v:ask="false" v:langID="1043" v:cal="0"/>
				<v:cp v:nameU="AdminInterface" v:lbl="Beheerinterface" v:prompt="" v:type="0" v:format="" v:sortKey="Network"
						v:invis="false" v:ask="false" v:langID="1043" v:cal="0"/>
				<v:cp v:nameU="NumberofPorts" v:lbl="Aantal poorten" v:prompt="" v:type="0" v:format="" v:sortKey="Network"
						v:invis="false" v:ask="false" v:langID="1043" v:cal="0"/>
				<v:cp v:nameU="CommunityString" v:lbl="Groepstekenreeks" v:prompt="" v:type="0" v:format="" v:sortKey="Network"
						v:invis="false" v:ask="false" v:langID="1043" v:cal="0"/>
				<v:cp v:nameU="NetworkDescription" v:lbl="Netwerkbeschrijving" v:prompt="" v:type="0" v:format=""
						v:sortKey="Network" v:invis="false" v:ask="false" v:langID="1043" v:cal="0"/>
				<v:cp v:nameU="MACAddress" v:lbl="MAC-adres" v:prompt="" v:type="0" v:format="" v:sortKey="Network" v:invis="false"
						v:ask="false" v:langID="1043" v:cal="0"/>
				<v:cp v:nameU="CPU" v:lbl="CPU" v:prompt="" v:type="0" v:format="" v:sortKey="Workstation" v:invis="false"
						v:ask="false" v:langID="1043" v:cal="0"/>
				<v:cp v:nameU="Memory" v:lbl="Geheugen" v:prompt="" v:type="0" v:format="" v:sortKey="Workstation" v:invis="false"
						v:ask="false" v:langID="1043" v:cal="0"/>
				<v:cp v:nameU="OperatingSystem" v:lbl="Besturingssysteem" v:prompt="" v:type="0" v:format=""
						v:sortKey="Workstation" v:invis="false" v:ask="false" v:langID="1043" v:cal="0"/>
				<v:cp v:nameU="HardDriveSize" v:lbl="Capaciteit vaste schijf" v:prompt="" v:type="0" v:format=""
						v:sortKey="Workstation" v:invis="false" v:ask="false" v:langID="1043" v:cal="0"/>
				<v:cp v:nameU="Department" v:lbl="Afdeling" v:prompt="" v:type="0" v:format="" v:sortKey="" v:invis="false"
						v:ask="false" v:langID="1043" v:cal="0"/>
				<v:cp v:nameU="ShapeClass" v:lbl="ShapeClass" v:prompt="" v:type="0" v:format="" v:sortKey="" v:invis="true"
						v:ask="false" v:langID="1043" v:cal="0" v:val="VT4(Apparatuur)"/>
				<v:cp v:nameU="ShapeType" v:lbl="ShapeType" v:prompt="" v:type="0" v:format="" v:sortKey="" v:invis="true"
						v:ask="false" v:langID="1043" v:cal="0" v:val="VT4(Computer)"/>
				<v:cp v:nameU="SubShapeType" v:lbl="SubShapeType" v:prompt="" v:type="0" v:format="" v:sortKey="" v:invis="true"
						v:ask="false" v:langID="1043" v:cal="0" v:val="VT4(Bureaublad)"/>
				<v:cp v:nameU="BelongsTo" v:lbl="Behoort tot" v:prompt="" v:type="0" v:format="" v:sortKey="" v:invis="true"
						v:ask="false" v:langID="1043" v:cal="0"/>
			</v:custProps>
			<v:userDefs>
				<v:ud v:nameU="visVersion" v:prompt="" v:val="VT0(15):26"/>
				<v:ud v:nameU="ShapeClass" v:prompt="" v:val="VT0(5):26"/>
				<v:ud v:nameU="SOLSH" v:prompt="" v:val="VT15({BF0433D9-CD73-4EB5-8390-8653BE590246}):41"/>
				<v:ud v:nameU="visLegendShape" v:prompt="" v:val="VT0(2):26"/>
			</v:userDefs>
			<title>Virtual Pc.127</title>
			<desc>VM</desc>
			<g id="shape18-50" v:mID="18" v:groupContext="shape" transform="translate(3.14513,-4.85472)">
				<title>Blad.18</title>
				<path d="M25.65 832.59 L25.65 835.79 L27.58 835.79 L29.41 838.08 L37.86 838.08 L37.86 809.08 L25.65 809.08 L25.65
							 813.24 L30.89 813.24 L30.89 832.59 L25.65 832.59 ZM30.89 813.24 L1.89 813.24 L1.89 832.59 L30.89 832.59
							 L30.89 813.24 ZM32.45 841.89 L27.58 835.79 L4.87 835.79 L0 841.89 L32.45 841.89 ZM18.77 832.59 L13.67
							 832.59 L13.67 835.79 L18.77 835.79 L18.77 832.59 Z" class="st12"/>
			</g>
			<g id="shape19-52" v:mID="19" v:groupContext="shape" transform="translate(6.91309,-15.8959)">
				<title>Blad.19</title>
				<v:userDefs>
					<v:ud v:nameU="SurroundingRegionColor" v:prompt="" v:val="VT0(1):26"/>
				</v:userDefs>
				<path d="M25.28 826.2 L0 826.2 L0 841.89 L25.28 841.89 L25.28 826.2 Z" class="st12"/>
			</g>
			<g id="shape20-54" v:mID="20" v:groupContext="shape" transform="translate(7.56085,-6.1142)">
				<title>Blad.20</title>
				<v:userDefs>
					<v:ud v:nameU="SurroundingRegionColor" v:prompt="" v:val="VT0(1):26"/>
				</v:userDefs>
				<path d="M28.55 813.58 L31.17 813.58 L31.17 812.57 L28.55 812.57 L28.55 813.58 ZM28.55 815.4 L31.17 815.4 L31.17
							 814.38 L28.55 814.38 L28.55 815.4 ZM22.16 839.52 L20.72 839.52 L21.52 840.42 L23.08 840.42 L22.16 839.52
							 ZM20.53 837.93 L19.28 837.93 L20.15 838.9 L21.51 838.9 L20.53 837.93 ZM19.94 839.52 L18.5 839.52 L19.13
							 840.42 L20.68 840.42 L19.94 839.52 ZM18.62 837.93 L17.37 837.93 L18.05 838.9 L19.42 838.9 L18.62 837.93
							 ZM17.72 839.52 L16.28 839.52 L16.74 840.42 L18.29 840.42 L17.72 839.52 ZM16.71 837.93 L15.47 837.93
							 L15.96 838.92 L17.33 838.92 L16.71 837.93 ZM15.5 839.52 L14.06 839.52 L14.35 840.42 L15.9 840.42 L15.5
							 839.52 ZM14.82 838 L13.57 838 L13.87 838.92 L15.23 838.92 L14.82 838 ZM13.28 839.52 L11.84 839.52 L11.96
							 840.42 L13.51 840.42 L13.28 839.52 ZM12.92 838.07 L11.66 838.07 L11.77 838.97 L13.15 838.97 L12.92 838.07
							 ZM10.98 838.07 L9.72 838.07 L9.66 838.97 L11.03 838.97 L10.98 838.07 ZM11.07 839.52 L9.62 839.52 L9.56
							 840.42 L11.12 840.42 L11.07 839.52 ZM9.04 838.07 L7.78 838.07 L7.55 838.97 L8.92 838.97 L9.04 838.07
							 ZM8.85 839.52 L7.41 839.52 L7.17 840.42 L8.73 840.42 L8.85 839.52 ZM16.76 840.99 L6.58 840.99 L6.32
							 841.89 L17.2 841.89 L16.76 840.99 ZM7.1 838.07 L5.84 838.07 L5.44 838.97 L6.81 838.97 L7.1 838.07 ZM6.63
							 839.52 L5.19 839.52 L4.78 840.42 L6.34 840.42 L6.63 839.52 ZM5.16 838.07 L3.9 838.07 L3.33 838.97 L4.7
							 838.97 L5.16 838.07 ZM4.41 839.52 L2.97 839.52 L2.39 840.42 L3.95 840.42 L4.41 839.52 ZM3.23 838.07
							 L1.97 838.07 L1.21 838.97 L2.59 838.97 L3.23 838.07 ZM2.19 839.52 L0.75 839.52 L0 840.42 L1.55 840.42
							 L2.19 839.52 Z" class="st13"/>
			</g>
			<g id="shape21-57" v:mID="21" v:groupContext="shape" transform="translate(0,-3.34032)">
				<title>Blad.21</title>
				<path d="M27.28 810.21 L3.52 810.21 L3.52 832.59 L7.42 832.59 L0 841.89 L38.74 841.89 L35.7 838.08 L42.52 838.08
							 L42.52 806.05 L27.28 806.05 L27.28 810.21" class="st14"/>
			</g>
			<g id="shape17-60" v:mID="17" v:groupContext="groupContent">
				<v:textBlock v:margins="rect(4,4,4,4)" v:tabSpace="42.5197"/>
				<v:textRect cx="21.2598" cy="850.092" width="19.55" height="16.4039"/>
				<text x="16.28" y="852.19" class="st7" v:langID="1043"><v:paragraph v:horizAlign="1"/><v:tabList/>VM</text>			</g>
		</g>
		<g id="shape25-62" v:mID="25" v:groupContext="shape" v:layerMember="1" transform="translate(232.815,-605.158)">
			<title>Dynamische verbindingslijn.25</title>
			<desc>Start machine</desc>
			<v:textBlock v:margins="rect(4,4,4,4)" v:tabSpace="42.5197"/>
			<v:textRect cx="7.08661" cy="877.323" width="49.22" height="16.4039"/>
			<path d="M7.09 841.89 L7.09 906.22" class="st5"/>
			<rect v:rectContext="textBkgnd" x="-12.729" y="873.123" width="39.6313" height="8.40015" class="st6"/>
			<text x="-12.73" y="879.42" class="st7" v:langID="1043"><v:paragraph v:horizAlign="1"/><v:tabList/>Start machine</text>		</g>
		<g id="shape27-69" v:mID="27" v:groupContext="shape" v:layerMember="1" transform="translate(234.604,-647.678)">
			<title>Dynamische verbindingslijn.27</title>
			<desc>Start analysis manager</desc>
			<v:textBlock v:margins="rect(4,4,4,4)" v:tabSpace="42.5197"/>
			<v:textRect cx="7.08661" cy="784.51" width="73.89" height="16.4039"/>
			<path d="M7.09 835.71 L7.09 835.35 L7.09 727.13" class="st3"/>
			<rect v:rectContext="textBkgnd" x="-25.0627" y="780.31" width="64.2986" height="8.40015" class="st6"/>
			<text x="-25.06" y="786.61" class="st7" v:langID="1043"><v:paragraph v:horizAlign="1"/><v:tabList/>Start analysis manager</text>		</g>
		<g id="shape28-76" v:mID="28" v:groupContext="shape" v:layerMember="1" transform="translate(266.466,-491.772)">
			<title>Dynamische verbindingslijn.28</title>
			<desc>Upload analyzer to agent</desc>
			<v:textBlock v:margins="rect(4,4,4,4)" v:tabSpace="42.5197"/>
			<v:textRect cx="27.7297" cy="863.366" width="80.87" height="16.4039"/>
			<path d="M0 841.89 L50.29 880.84" class="st5"/>
			<rect v:rectContext="textBkgnd" x="-7.91104" y="859.166" width="71.2815" height="8.40015" class="st6"/>
			<text x="-7.91" y="865.47" class="st7" v:langID="1043"><v:paragraph v:horizAlign="1"/><v:tabList/>Upload analyzer to agent</text>		</g>
		<g id="shape29-83" v:mID="29" v:groupContext="shape" v:layerMember="1" transform="translate(286.969,-626.418)">
			<title>Dynamische verbindingslijn.29</title>
			<desc>Inform about new task</desc>
			<v:textBlock v:margins="rect(4,4,4,4)" v:tabSpace="42.5197"/>
			<v:textRect cx="55.4094" cy="834.803" width="74.17" height="16.4039"/>
			<path d="M0 834.8 L104.28 834.8" class="st5"/>
			<rect v:rectContext="textBkgnd" x="20" y="830.603" width="75.5757" height="8.40015" class="st15"/>
			<text x="23.12" y="836.9" class="st7" v:langID="1043"><v:paragraph v:horizAlign="1"/><v:tabList/>Inform about new task</text>		</g>
		<g id="shape30-90" v:mID="30" v:groupContext="shape" v:layerMember="1" transform="translate(397.787,-612.245)">
			<title>Dynamische verbindingslijn.30</title>
			<desc>Collected behavior</desc>
			<v:textBlock v:margins="rect(4,4,4,4)" v:tabSpace="42.5197"/>
			<v:textRect cx="-55.4094" cy="834.803" width="62.85" height="16.4039"/>
			<path d="M0 834.8 L-104.28 834.8" class="st5"/>
			<rect v:rectContext="textBkgnd" x="-84.0388" y="830.603" width="62.2587" height="8.40015" class="st6"/>
			<text x="-82.04" y="836.9" class="st7" v:langID="1043"><v:paragraph v:horizAlign="1"/><v:tabList/>Collected behavior</text>		</g>
		<g id="shape32-97" v:mID="32" v:groupContext="shape" v:layerMember="1" transform="translate(438.654,-534.292)">
			<title>Dynamische verbindingslijn.32</title>
			<desc>Upload collected behavior</desc>
			<v:textBlock v:margins="rect(4,4,4,4)" v:tabSpace="42.5197"/>
			<v:textRect cx="7.08661" cy="806.457" width="84.16" height="16.4039"/>
			<path d="M7.09 841.89 L7.09 777.56" class="st5"/>
			<rect v:rectContext="textBkgnd" x="-30.1966" y="802.257" width="74.5664" height="8.40015" class="st6"/>
			<text x="-30.2" y="808.56" class="st7" v:langID="1043"><v:paragraph v:horizAlign="1"/><v:tabList/>Upload collected behavior</text>		</g>
		<g id="shape33-104" v:mID="33" v:groupContext="shape" v:layerMember="1" transform="translate(360.927,-450.703)">
			<title>Dynamische verbindingslijn.33</title>
			<desc>Start analyzer and target</desc>
			<v:textBlock v:margins="rect(4,4,4,4)" v:tabSpace="42.5197"/>
			<v:textRect cx="27.9422" cy="821.355" width="79.85" height="16.4039"/>
			<path d="M0 841.89 L55.88 800.82" class="st16"/>
			<rect v:rectContext="textBkgnd" x="-7.1892" y="817.155" width="70.2628" height="8.40015" class="st6"/>
			<text x="-7.19" y="823.46" class="st7" v:langID="1043"><v:paragraph v:horizAlign="1"/><v:tabList/>Start analyzer and target</text>		</g>
		<g id="shape34-109" v:mID="34" v:groupContext="shape" transform="translate(300.472,-505.235)">
			<title>Configureren.34</title>
			<v:userDefs>
				<v:ud v:nameU="msvShapeCategories" v:prompt="" v:val="VT4(Icon)"/>
				<v:ud v:nameU="visVersion" v:prompt="" v:val="VT0(15):26"/>
			</v:userDefs>
			<path d="M14.3 836.08 C14 835.95 13.03 835.55 13.03 835.55 L13.1 834.74 L13.15 834.07 L13.06 832.78 L13.7 832.41 C13.7
						 832.41 14.02 832.28 14.32 832.15 C14.11 831.62 14.02 831.4 13.8 830.88 C13.5 831 12.5 831.41 12.5 831.41
						 L12 830.79 C11.76 830.49 11.47 830.21 11.1 829.92 L10.51 829.47 L10.75 828.75 C10.75 828.75 10.89 828.41
						 11.02 828.09 C10.49 827.87 10.27 827.78 9.75 827.57 C9.61 827.9 9.19 828.92 9.19 828.92 L8.41 828.85 C8.02
						 828.81 7.61 828.81 7.2 828.87 L6.46 828.97 L6.12 828.29 C6.12 828.29 5.96 827.93 5.82 827.58 C5.29 827.81
						 5.07 827.9 4.55 828.12 C4.71 828.49 5.15 829.53 5.15 829.53 L4.55 830.03 C4.26 830.27 4 830.55 3.74 830.89
						 L3.29 831.47 L2.57 831.24 C2.57 831.24 2.18 831.08 1.79 830.93 C1.58 831.46 1.49 831.68 1.28 832.21 C1.67
						 832.36 2.72 832.78 2.72 832.78 C2.72 832.78 2.65 833.97 2.65 834.06 C2.65 834.15 2.67 834.41 2.67 834.42
						 C2.67 834.42 2.73 835.04 2.73 835.04 L2.35 835.39 C2.24 835.5 2.2 835.53 1.26 835.9 C1.47 836.43 1.55 836.65
						 1.76 837.18 C2.15 837.03 3.24 836.61 3.24 836.61 L3.81 837.38 C3.98 837.59 4.22 837.84 4.52 838.09 L5.07
						 838.55 L4.83 839.25 C4.83 839.25 4.66 839.64 4.49 840.02 C5.02 840.25 5.23 840.34 5.76 840.57 C5.91 840.21
						 6.36 839.16 6.36 839.16 L7.16 839.27 C7.53 839.32 7.93 839.33 8.35 839.3 L9.07 839.23 L9.39 839.9 C9.39
						 839.9 9.54 840.27 9.68 840.62 C10.21 840.41 10.43 840.32 10.96 840.11 C10.83 839.78 10.41 838.73 10.41 838.73
						 L11.2 838.16 C11.43 837.98 11.68 837.72 11.95 837.4 L12.41 836.83 L13.12 837.08 C13.12 837.08 13.45 837.22
						 13.77 837.35 C13.99 836.82 14.08 836.61 14.3 836.08 ZM14.06 834.87 C14.06 834.87 14.06 834.89 14.06 834.92
						 C14.19 834.98 15.58 835.56 15.58 835.56 L14.29 838.63 C14.29 838.63 12.87 838.03 12.74 837.97 C12.72 837.99
						 12.7 838.01 12.7 838.01 C12.39 838.39 12.09 838.7 11.77 838.95 C11.77 838.95 11.67 839.03 11.6 839.08 C11.65
						 839.22 12.23 840.65 12.23 840.65 L9.14 841.89 C9.14 841.89 8.54 840.4 8.49 840.26 C8.46 840.26 8.44 840.27
						 8.44 840.27 C7.94 840.31 7.46 840.3 7.02 840.24 C7.02 840.24 6.99 840.23 6.96 840.23 C6.91 840.36 6.26 841.85
						 6.26 841.85 L3.21 840.53 C3.21 840.53 3.87 839 3.93 838.86 C3.91 838.85 3.89 838.83 3.89 838.83 C3.54 838.54
						 3.26 838.25 3.02 837.95 C3.02 837.95 2.95 837.85 2.9 837.79 C2.76 837.84 1.21 838.45 1.21 838.45 L0 835.35
						 C0 835.35 1.66 834.7 1.66 834.7 C1.66 834.7 1.69 834.69 1.71 834.68 C1.71 834.6 1.7 834.48 1.7 834.48 L1.67
						 834.07 C1.67 834.07 1.7 833.55 1.7 833.43 C1.57 833.38 0.01 832.75 0.01 832.75 L1.25 829.66 C1.25 829.66
						 2.79 830.28 2.93 830.34 C2.95 830.31 2.97 830.29 2.97 830.29 C3.27 829.9 3.58 829.56 3.93 829.28 C3.93 829.28
						 3.95 829.26 3.97 829.25 C3.91 829.11 3.27 827.6 3.27 827.6 L6.34 826.31 C6.34 826.31 6.96 827.77 7.01 827.91
						 C7.04 827.91 7.07 827.9 7.07 827.9 C7.56 827.84 8.04 827.83 8.51 827.88 C8.51 827.88 8.54 827.88 8.56 827.88
						 C8.62 827.75 9.21 826.3 9.21 826.3 L12.29 827.56 C12.29 827.56 11.7 828.98 11.65 829.12 C11.67 829.14 11.69
						 829.15 11.69 829.15 C12.12 829.49 12.47 829.82 12.76 830.18 C12.76 830.18 12.78 830.21 12.8 830.23 C12.94
						 830.18 14.33 829.6 14.33 829.6 L15.59 832.68 C15.59 832.68 14.21 833.25 14.07 833.31 C14.07 833.34 14.08
						 833.36 14.08 833.36 C14.11 833.63 14.12 833.86 14.12 834.07 C14.12 834.3 14.1 834.56 14.06 834.87 ZM9.2
						 835.71 C10.11 834.99 10.25 833.67 9.53 832.77 C8.81 831.86 7.49 831.71 6.59 832.44 C5.69 833.16 5.54 834.48
						 6.26 835.38 C6.98 836.29 8.3 836.43 9.2 835.71 ZM8.23 831.02 C9.05 831.11 9.78 831.52 10.29 832.16 C11.35
						 833.48 11.13 835.41 9.81 836.47 C9.17 836.98 8.37 837.22 7.56 837.13 C6.74 837.03 6.01 836.63 5.5 835.99
						 C5.05 835.43 4.83 834.75 4.83 834.08 C4.83 833.18 5.22 832.28 5.98 831.68 C6.62 831.16 7.42 830.93 8.23
						 831.02 Z" class="st17"/>
		</g>
		<g id="shape35-111" v:mID="35" v:groupContext="shape" transform="translate(255.118,-491.772)">
			<title>Blad.35</title>
			<desc>Cuckoo monitor</desc>
			<v:textBlock v:margins="rect(4,4,4,4)" v:tabSpace="42.5197"/>
			<v:textRect cx="59.2598" cy="834.092" width="118.52" height="15.5947"/>
			<rect x="0" y="826.295" width="118.52" height="15.5947" class="st10"/>
			<text x="36.48" y="836.19" class="st7" v:langID="1043"><v:paragraph v:horizAlign="1"/><v:tabList/>Cuckoo monitor</text>		</g>
		<g id="shape36-114" v:mID="36" v:groupContext="shape" v:layerMember="1" transform="translate(397.787,-505.945)">
			<title>Dynamische verbindingslijn.36</title>
			<desc>Inject processes</desc>
			<v:textBlock v:margins="rect(4,4,4,4)" v:tabSpace="42.5197"/>
			<v:textRect cx="-39.4655" cy="834.803" width="55.03" height="16.4039"/>
			<path d="M-6.18 834.8 L-6.54 834.8 L-72.39 834.8" class="st9"/>
			<rect v:rectContext="textBkgnd" x="-65.1831" y="830.603" width="55.4351" height="8.40015" class="st15"/>
			<text x="-62.18" y="836.9" class="st7" v:langID="1043"><v:paragraph v:horizAlign="1"/><v:tabList/>Inject processes</text>		</g>
		<g id="shape41-123" v:mID="41" v:groupContext="shape" transform="translate(193.738,-762.436)">
			<title>Afgeronde rechthoek</title>
			<desc>Task scheduler</desc>
			<v:userDefs>
				<v:ud v:nameU="CTypeTopLeftSnip" v:prompt="" v:val="VT0(0):5"/>
				<v:ud v:nameU="CTypeTopRightSnip" v:prompt="" v:val="VT0(0):5"/>
				<v:ud v:nameU="CTypeBotLeftSnip" v:prompt="" v:val="VT0(0):5"/>
				<v:ud v:nameU="CTypeBotRightSnip" v:prompt="" v:val="VT0(0):5"/>
				<v:ud v:nameU="CornerLockHoriz" v:prompt="" v:val="VT0(1):5"/>
				<v:ud v:nameU="CornerLockVert" v:prompt="" v:val="VT0(1):5"/>
				<v:ud v:nameU="CornerLockDiag" v:prompt="" v:val="VT0(0):5"/>
				<v:ud v:nameU="TopLeftOffset" v:prompt="" v:val="VT0(0.15748031496063):24"/>
				<v:ud v:nameU="TopRightOffset" v:prompt="" v:val="VT0(0.15748031496063):24"/>
				<v:ud v:nameU="BotLeftOffset" v:prompt="" v:val="VT0(0.15748031496063):24"/>
				<v:ud v:nameU="BotRightOffset" v:prompt="" v:val="VT0(0.15748031496063):24"/>
				<v:ud v:nameU="visVersion" v:prompt="" v:val="VT0(15):26"/>
				<v:ud v:nameU="TopLeftOffset" v:prompt="" v:val="VT0(0.052579776212184):1"/>
				<v:ud v:nameU="TopRightOffset" v:prompt="" v:val="VT0(0.052579776212184):1"/>
				<v:ud v:nameU="BotLeftOffset" v:prompt="" v:val="VT0(0.052579776212184):1"/>
				<v:ud v:nameU="BotRightOffset" v:prompt="" v:val="VT0(0.052579776212184):1"/>
			</v:userDefs>
			<v:textBlock v:margins="rect(2,2,2,2)" v:tabSpace="42.5197"/>
			<v:textRect cx="47.9528" cy="820.63" width="95.91" height="42.5197"/>
			<path d="M3.79 841.89 L92.12 841.89 A3.78568 3.78568 -180 0 0 95.91 838.1 L95.91 803.16 A3.78568 3.78568 -180 0 0 92.12
						 799.37 L3.79 799.37 A3.78568 3.78568 -180 0 0 0 803.16 L0 838.1 A3.78568 3.78568 -180 0 0 3.79 841.89 Z"
					class="st8"/>
			<text x="23.95" y="823.03" class="st18" v:langID="1043"><v:paragraph v:horizAlign="1"/><v:tabList/>Task scheduler</text>		</g>
		<g id="shape44-126" v:mID="44" v:groupContext="shape" transform="translate(190.079,-606.654)">
			<title>Afgeronde rechthoek.44</title>
			<desc>Analysis manager</desc>
			<v:userDefs>
				<v:ud v:nameU="CTypeTopLeftSnip" v:prompt="" v:val="VT0(0):5"/>
				<v:ud v:nameU="CTypeTopRightSnip" v:prompt="" v:val="VT0(0):5"/>
				<v:ud v:nameU="CTypeBotLeftSnip" v:prompt="" v:val="VT0(0):5"/>
				<v:ud v:nameU="CTypeBotRightSnip" v:prompt="" v:val="VT0(0):5"/>
				<v:ud v:nameU="CornerLockHoriz" v:prompt="" v:val="VT0(1):5"/>
				<v:ud v:nameU="CornerLockVert" v:prompt="" v:val="VT0(1):5"/>
				<v:ud v:nameU="CornerLockDiag" v:prompt="" v:val="VT0(0):5"/>
				<v:ud v:nameU="TopLeftOffset" v:prompt="" v:val="VT0(0.15748031496063):24"/>
				<v:ud v:nameU="TopRightOffset" v:prompt="" v:val="VT0(0.15748031496063):24"/>
				<v:ud v:nameU="BotLeftOffset" v:prompt="" v:val="VT0(0.15748031496063):24"/>
				<v:ud v:nameU="BotRightOffset" v:prompt="" v:val="VT0(0.15748031496063):24"/>
				<v:ud v:nameU="visVersion" v:prompt="" v:val="VT0(15):26"/>
				<v:ud v:nameU="TopLeftOffset" v:prompt="" v:val="VT0(0.052579776212184):1"/>
				<v:ud v:nameU="TopRightOffset" v:prompt="" v:val="VT0(0.052579776212184):1"/>
				<v:ud v:nameU="BotLeftOffset" v:prompt="" v:val="VT0(0.052579776212184):1"/>
				<v:ud v:nameU="BotRightOffset" v:prompt="" v:val="VT0(0.052579776212184):1"/>
			</v:userDefs>
			<v:textBlock v:margins="rect(2,2,2,2)" v:tabSpace="42.5197"/>
			<v:textRect cx="47.9528" cy="820.63" width="95.91" height="42.5197"/>
			<path d="M3.79 841.89 L92.12 841.89 A3.78568 3.78568 -180 0 0 95.91 838.1 L95.91 803.16 A3.78568 3.78568 -180 0 0 92.12
						 799.37 L3.79 799.37 A3.78568 3.78568 -180 0 0 0 803.16 L0 838.1 A3.78568 3.78568 -180 0 0 3.79 841.89 Z"
					class="st8"/>
			<text x="19.54" y="823.03" class="st18" v:langID="1043"><v:paragraph v:horizAlign="1"/><v:tabList/>Analysis manager</text>		</g>
		<g id="shape45-129" v:mID="45" v:groupContext="shape" transform="translate(397.787,-605.158)">
			<title>Afgeronde rechthoek.45</title>
			<desc>Result server</desc>
			<v:userDefs>
				<v:ud v:nameU="CTypeTopLeftSnip" v:prompt="" v:val="VT0(0):5"/>
				<v:ud v:nameU="CTypeTopRightSnip" v:prompt="" v:val="VT0(0):5"/>
				<v:ud v:nameU="CTypeBotLeftSnip" v:prompt="" v:val="VT0(0):5"/>
				<v:ud v:nameU="CTypeBotRightSnip" v:prompt="" v:val="VT0(0):5"/>
				<v:ud v:nameU="CornerLockHoriz" v:prompt="" v:val="VT0(1):5"/>
				<v:ud v:nameU="CornerLockVert" v:prompt="" v:val="VT0(1):5"/>
				<v:ud v:nameU="CornerLockDiag" v:prompt="" v:val="VT0(0):5"/>
				<v:ud v:nameU="TopLeftOffset" v:prompt="" v:val="VT0(0.15748031496063):24"/>
				<v:ud v:nameU="TopRightOffset" v:prompt="" v:val="VT0(0.15748031496063):24"/>
				<v:ud v:nameU="BotLeftOffset" v:prompt="" v:val="VT0(0.15748031496063):24"/>
				<v:ud v:nameU="BotRightOffset" v:prompt="" v:val="VT0(0.15748031496063):24"/>
				<v:ud v:nameU="visVersion" v:prompt="" v:val="VT0(15):26"/>
				<v:ud v:nameU="TopLeftOffset" v:prompt="" v:val="VT0(0.052579776212184):1"/>
				<v:ud v:nameU="TopRightOffset" v:prompt="" v:val="VT0(0.052579776212184):1"/>
				<v:ud v:nameU="BotLeftOffset" v:prompt="" v:val="VT0(0.052579776212184):1"/>
				<v:ud v:nameU="BotRightOffset" v:prompt="" v:val="VT0(0.052579776212184):1"/>
			</v:userDefs>
			<v:textBlock v:margins="rect(2,2,2,2)" v:tabSpace="42.5197"/>
			<v:textRect cx="47.9528" cy="820.63" width="95.91" height="42.5197"/>
			<path d="M3.79 841.89 L92.12 841.89 A3.78568 3.78568 -180 0 0 95.91 838.1 L95.91 803.16 A3.78568 3.78568 -180 0 0 92.12
						 799.37 L3.79 799.37 A3.78568 3.78568 -180 0 0 0 803.16 L0 838.1 A3.78568 3.78568 -180 0 0 3.79 841.89 Z"
					class="st8"/>
			<text x="26.82" y="823.03" class="st18" v:langID="1043"><v:paragraph v:horizAlign="1"/><v:tabList/>Result server</text>		</g>
		<g id="shape47-132" v:mID="47" v:groupContext="shape" transform="translate(191.949,-491.772)">
			<title>Afgeronde rechthoek.47</title>
			<desc>Guest manager</desc>
			<v:userDefs>
				<v:ud v:nameU="CTypeTopLeftSnip" v:prompt="" v:val="VT0(0):5"/>
				<v:ud v:nameU="CTypeTopRightSnip" v:prompt="" v:val="VT0(0):5"/>
				<v:ud v:nameU="CTypeBotLeftSnip" v:prompt="" v:val="VT0(0):5"/>
				<v:ud v:nameU="CTypeBotRightSnip" v:prompt="" v:val="VT0(0):5"/>
				<v:ud v:nameU="CornerLockHoriz" v:prompt="" v:val="VT0(1):5"/>
				<v:ud v:nameU="CornerLockVert" v:prompt="" v:val="VT0(1):5"/>
				<v:ud v:nameU="CornerLockDiag" v:prompt="" v:val="VT0(0):5"/>
				<v:ud v:nameU="TopLeftOffset" v:prompt="" v:val="VT0(0.15748031496063):24"/>
				<v:ud v:nameU="TopRightOffset" v:prompt="" v:val="VT0(0.15748031496063):24"/>
				<v:ud v:nameU="BotLeftOffset" v:prompt="" v:val="VT0(0.15748031496063):24"/>
				<v:ud v:nameU="BotRightOffset" v:prompt="" v:val="VT0(0.15748031496063):24"/>
				<v:ud v:nameU="visVersion" v:prompt="" v:val="VT0(15):26"/>
				<v:ud v:nameU="TopLeftOffset" v:prompt="" v:val="VT0(0.052579776212184):1"/>
				<v:ud v:nameU="TopRightOffset" v:prompt="" v:val="VT0(0.052579776212184):1"/>
				<v:ud v:nameU="BotLeftOffset" v:prompt="" v:val="VT0(0.052579776212184):1"/>
				<v:ud v:nameU="BotRightOffset" v:prompt="" v:val="VT0(0.052579776212184):1"/>
			</v:userDefs>
			<v:textBlock v:margins="rect(2,2,2,2)" v:tabSpace="42.5197"/>
			<v:textRect cx="47.9528" cy="820.63" width="95.91" height="42.5197"/>
			<path d="M3.79 841.89 L92.12 841.89 A3.78568 3.78568 -180 0 0 95.91 838.1 L95.91 803.16 A3.78568 3.78568 -180 0 0 92.12
						 799.37 L3.79 799.37 A3.78568 3.78568 -180 0 0 0 803.16 L0 838.1 A3.78568 3.78568 -180 0 0 3.79 841.89 Z"
					class="st8"/>
			<text x="23.13" y="823.03" class="st18" v:langID="1043"><v:paragraph v:horizAlign="1"/><v:tabList/>Guest manager</text>		</g>
		<g id="shape48-135" v:mID="48" v:groupContext="shape" transform="translate(397.787,-491.772)">
			<title>Afgeronde rechthoek.48</title>
			<desc>Analyzer</desc>
			<v:userDefs>
				<v:ud v:nameU="CTypeTopLeftSnip" v:prompt="" v:val="VT0(0):5"/>
				<v:ud v:nameU="CTypeTopRightSnip" v:prompt="" v:val="VT0(0):5"/>
				<v:ud v:nameU="CTypeBotLeftSnip" v:prompt="" v:val="VT0(0):5"/>
				<v:ud v:nameU="CTypeBotRightSnip" v:prompt="" v:val="VT0(0):5"/>
				<v:ud v:nameU="CornerLockHoriz" v:prompt="" v:val="VT0(1):5"/>
				<v:ud v:nameU="CornerLockVert" v:prompt="" v:val="VT0(1):5"/>
				<v:ud v:nameU="CornerLockDiag" v:prompt="" v:val="VT0(0):5"/>
				<v:ud v:nameU="TopLeftOffset" v:prompt="" v:val="VT0(0.15748031496063):24"/>
				<v:ud v:nameU="TopRightOffset" v:prompt="" v:val="VT0(0.15748031496063):24"/>
				<v:ud v:nameU="BotLeftOffset" v:prompt="" v:val="VT0(0.15748031496063):24"/>
				<v:ud v:nameU="BotRightOffset" v:prompt="" v:val="VT0(0.15748031496063):24"/>
				<v:ud v:nameU="visVersion" v:prompt="" v:val="VT0(15):26"/>
				<v:ud v:nameU="TopLeftOffset" v:prompt="" v:val="VT0(0.052579776212184):1"/>
				<v:ud v:nameU="TopRightOffset" v:prompt="" v:val="VT0(0.052579776212184):1"/>
				<v:ud v:nameU="BotLeftOffset" v:prompt="" v:val="VT0(0.052579776212184):1"/>
				<v:ud v:nameU="BotRightOffset" v:prompt="" v:val="VT0(0.052579776212184):1"/>
			</v:userDefs>
			<v:textBlock v:margins="rect(2,2,2,2)" v:tabSpace="42.5197"/>
			<v:textRect cx="47.9528" cy="820.63" width="95.91" height="42.5197"/>
			<path d="M3.79 841.89 L92.12 841.89 A3.78568 3.78568 -180 0 0 95.91 838.1 L95.91 803.16 A3.78568 3.78568 -180 0 0 92.12
						 799.37 L3.79 799.37 A3.78568 3.78568 -180 0 0 0 803.16 L0 838.1 A3.78568 3.78568 -180 0 0 3.79 841.89 Z"
					class="st8"/>
			<text x="33.93" y="823.03" class="st18" v:langID="1043"><v:paragraph v:horizAlign="1"/><v:tabList/>Analyzer</text>		</g>
		<g id="shape49-138" v:mID="49" v:groupContext="shape" transform="translate(400.157,-765.104)">
			<title>Afgeronde rechthoek.49</title>
			<desc>Submit new file/url</desc>
			<v:userDefs>
				<v:ud v:nameU="CTypeTopLeftSnip" v:prompt="" v:val="VT0(0):5"/>
				<v:ud v:nameU="CTypeTopRightSnip" v:prompt="" v:val="VT0(0):5"/>
				<v:ud v:nameU="CTypeBotLeftSnip" v:prompt="" v:val="VT0(0):5"/>
				<v:ud v:nameU="CTypeBotRightSnip" v:prompt="" v:val="VT0(0):5"/>
				<v:ud v:nameU="CornerLockHoriz" v:prompt="" v:val="VT0(1):5"/>
				<v:ud v:nameU="CornerLockVert" v:prompt="" v:val="VT0(1):5"/>
				<v:ud v:nameU="CornerLockDiag" v:prompt="" v:val="VT0(0):5"/>
				<v:ud v:nameU="TopLeftOffset" v:prompt="" v:val="VT0(0.15748031496063):24"/>
				<v:ud v:nameU="TopRightOffset" v:prompt="" v:val="VT0(0.15748031496063):24"/>
				<v:ud v:nameU="BotLeftOffset" v:prompt="" v:val="VT0(0.15748031496063):24"/>
				<v:ud v:nameU="BotRightOffset" v:prompt="" v:val="VT0(0.15748031496063):24"/>
				<v:ud v:nameU="visVersion" v:prompt="" v:val="VT0(15):26"/>
				<v:ud v:nameU="TopLeftOffset" v:prompt="" v:val="VT0(0.052579776212184):1"/>
				<v:ud v:nameU="TopRightOffset" v:prompt="" v:val="VT0(0.052579776212184):1"/>
				<v:ud v:nameU="BotLeftOffset" v:prompt="" v:val="VT0(0.052579776212184):1"/>
				<v:ud v:nameU="BotRightOffset" v:prompt="" v:val="VT0(0.052579776212184):1"/>
			</v:userDefs>
			<v:textBlock v:margins="rect(2,2,2,2)" v:tabSpace="42.5197"/>
			<v:textRect cx="47.9528" cy="820.63" width="95.91" height="42.5197"/>
			<path d="M3.79 841.89 L92.12 841.89 A3.78568 3.78568 -180 0 0 95.91 838.1 L95.91 803.16 A3.78568 3.78568 -180 0 0 92.12
						 799.37 L3.79 799.37 A3.78568 3.78568 -180 0 0 0 803.16 L0 838.1 A3.78568 3.78568 -180 0 0 3.79 841.89 Z"
					class="st8"/>
			<text x="16.69" y="823.03" class="st18" v:langID="1043"><v:paragraph v:horizAlign="1"/><v:tabList/>Submit new file/url</text>		</g>
		<g id="shape52-141" v:mID="52" v:groupContext="shape" transform="translate(71.4331,-611.961)">
			<title>Configureren.275</title>
			<v:userDefs>
				<v:ud v:nameU="msvShapeCategories" v:prompt="" v:val="VT4(Icon)"/>
				<v:ud v:nameU="visVersion" v:prompt="" v:val="VT0(15):26"/>
			</v:userDefs>
			<path d="M24.96 831.75 C24.43 831.53 22.75 830.82 22.75 830.82 L22.86 829.41 L22.94 828.24 L22.79 825.98 L23.91 825.34
						 C23.91 825.34 24.47 825.11 24.99 824.9 C24.62 823.97 24.46 823.59 24.08 822.67 C23.55 822.89 21.81 823.61
						 21.81 823.61 L20.94 822.53 C20.52 822 20.01 821.51 19.36 821.01 L18.34 820.21 L18.75 818.96 C18.75 818.96
						 19 818.37 19.23 817.81 C18.31 817.43 17.93 817.28 17.01 816.9 C16.77 817.48 16.04 819.26 16.04 819.26 L14.68
						 819.13 C13.99 819.06 13.28 819.07 12.56 819.17 L11.27 819.34 L10.67 818.16 C10.67 818.16 10.41 817.53 10.15
						 816.93 C9.23 817.31 8.86 817.47 7.94 817.86 C8.21 818.51 8.98 820.33 8.98 820.33 L7.94 821.2 C7.44 821.61
						 6.98 822.1 6.52 822.69 L5.74 823.71 L4.48 823.31 C4.48 823.31 3.8 823.03 3.13 822.76 C2.76 823.69 2.6 824.07
						 2.23 824.99 C2.92 825.27 4.74 826 4.74 826 C4.74 826 4.63 828.07 4.62 828.23 C4.63 828.38 4.66 828.84 4.66
						 828.85 C4.66 828.85 4.76 829.95 4.76 829.95 L4.11 830.54 C3.91 830.74 3.84 830.79 2.2 831.44 C2.56 832.37
						 2.71 832.75 3.07 833.68 C3.75 833.41 5.66 832.67 5.66 832.67 L6.65 834.02 C6.95 834.39 7.37 834.81 7.88
						 835.25 L8.85 836.07 L8.42 837.28 C8.42 837.28 8.13 837.96 7.84 838.63 C8.75 839.02 9.13 839.19 10.04 839.58
						 C10.31 838.96 11.1 837.13 11.1 837.13 L12.49 837.32 C13.14 837.41 13.84 837.43 14.57 837.36 L15.83 837.25
						 L16.39 838.42 C16.39 838.42 16.65 839.06 16.9 839.68 C17.82 839.31 18.2 839.15 19.13 838.78 C18.9 838.21
						 18.16 836.38 18.16 836.38 L19.55 835.39 C19.94 835.07 20.39 834.61 20.85 834.05 L21.66 833.07 L22.89 833.49
						 C22.89 833.49 23.47 833.74 24.03 833.97 C24.41 833.05 24.57 832.67 24.96 831.75 ZM24.54 829.63 C24.54 829.63
						 24.54 829.68 24.53 829.73 C24.76 829.82 27.19 830.85 27.19 830.85 L24.93 836.2 C24.93 836.2 22.46 835.15
						 22.22 835.05 C22.2 835.09 22.16 835.13 22.16 835.13 C21.63 835.78 21.1 836.32 20.54 836.76 C20.54 836.76
						 20.36 836.9 20.24 836.98 C20.33 837.23 21.34 839.73 21.34 839.73 L15.95 841.89 C15.95 841.89 14.91 839.28
						 14.81 839.05 C14.77 839.05 14.72 839.06 14.72 839.06 C13.86 839.13 13.02 839.11 12.25 839 C12.25 839 12.2
						 839 12.15 838.99 C12.05 839.23 10.93 841.82 10.93 841.82 L5.6 839.52 C5.6 839.52 6.76 836.85 6.86 836.61
						 C6.82 836.58 6.79 836.55 6.79 836.55 C6.18 836.04 5.69 835.54 5.27 835.02 C5.27 835.02 5.15 834.85 5.06
						 834.73 C4.82 834.82 2.11 835.88 2.11 835.88 L0 830.47 C0 830.47 2.9 829.34 2.9 829.34 C2.9 829.34 2.95 829.32
						 2.99 829.3 C2.98 829.16 2.96 828.96 2.96 828.96 L2.91 828.24 C2.91 828.24 2.96 827.34 2.97 827.12 C2.75
						 827.03 0.02 825.94 0.02 825.94 L2.18 820.55 C2.18 820.55 4.88 821.63 5.12 821.73 C5.14 821.69 5.17 821.65
						 5.17 821.65 C5.71 820.96 6.25 820.38 6.85 819.89 C6.85 819.89 6.89 819.86 6.92 819.83 C6.82 819.59 5.71
						 816.95 5.71 816.95 L11.06 814.7 C11.06 814.7 12.14 817.26 12.24 817.5 C12.28 817.49 12.33 817.48 12.33 817.48
						 C13.18 817.37 14.03 817.35 14.85 817.43 C14.85 817.43 14.9 817.44 14.94 817.44 C15.04 817.21 16.08 814.68
						 16.08 814.68 L21.44 816.88 C21.44 816.88 20.42 819.37 20.33 819.61 C20.36 819.63 20.4 819.66 20.4 819.66
						 C21.16 820.25 21.77 820.84 22.26 821.46 C22.26 821.46 22.3 821.5 22.34 821.55 C22.57 821.45 25.01 820.45
						 25.01 820.45 L27.21 825.82 C27.21 825.82 24.79 826.82 24.55 826.92 C24.56 826.96 24.56 827.01 24.56 827.01
						 C24.62 827.48 24.64 827.87 24.64 828.24 C24.64 828.65 24.61 829.1 24.54 829.63 ZM16.06 831.11 C17.63 829.85
						 17.89 827.54 16.63 825.97 C15.37 824.39 13.07 824.13 11.5 825.4 C9.92 826.66 9.67 828.96 10.93 830.53 C12.18
						 832.11 14.48 832.37 16.06 831.11 ZM14.37 822.93 C15.79 823.09 17.07 823.79 17.96 824.9 C19.8 827.21 19.43
						 830.59 17.12 832.43 C16 833.33 14.61 833.73 13.19 833.58 C11.76 833.42 10.49 832.71 9.6 831.59 C8.81 830.61
						 8.43 829.43 8.43 828.26 C8.43 826.68 9.11 825.12 10.43 824.07 C11.55 823.17 12.95 822.77 14.37 822.93 Z"
					class="st17"/>
		</g>
		<g id="shape53-143" v:mID="53" v:groupContext="shape" transform="translate(9.03937,-596.496)">
			<title>Blad.53</title>
			<desc>Machinery module</desc>
			<v:textBlock v:margins="rect(4,4,4,4)" v:tabSpace="42.5197"/>
			<v:textRect cx="76" cy="831.89" width="152" height="20"/>
			<rect x="0" y="821.89" width="152" height="20" class="st10"/>
			<text x="49.17" y="833.99" class="st7" v:langID="1043"><v:paragraph v:horizAlign="1"/><v:tabList/>Machinery module</text>		</g>
	</g>
</svg>
